<?xml version="1.0" encoding="utf-8"?>
<!-- Generator: Adobe Illustrator 15.0.0, SVG Export Plug-In . SVG Version: 6.00 Build 0)  -->
<!DOCTYPE svg PUBLIC "-//W3C//DTD SVG 1.1//EN" "http://www.w3.org/Graphics/SVG/1.1/DTD/svg11.dtd">
<svg version="1.1" id="Layer_1" xmlns="http://www.w3.org/2000/svg" xmlns:xlink="http://www.w3.org/1999/xlink" x="0px" y="0px"
	 width="1109px" height="901px" viewBox="0 0 1109 901" enable-background="new 0 0 1109 901" xml:space="preserve">
<path fill="#FFFFFF" stroke="#45AAFF" stroke-width="20" d="M735.618,13.194V13h50.499l18.452,3.69
	c12.301,2.396,23.469,5.536,33.505,9.42c10.034,3.885,19.746,8.417,29.134,13.596c9.388,5.18,17.9,10.456,25.541,15.83
	c7.575,5.309,14.373,10.942,20.394,16.898c5.956,6.021,15.248,7.575,27.872,4.662c12.625-2.914,26.222-6.959,40.788-12.14
	c14.567-5.179,28.973-11.006,43.216-17.48c14.243-6.474,22.919-10.585,26.026-12.334c3.043-1.812,4.662-2.783,4.856-2.913
	l0.194-0.291l0.971-0.486l0.972-0.485l0.971-0.486l0.972-0.485l0.193-0.291l0.292-0.195l0.291-0.194l0.194-0.291l0.971-0.292
	l0.972-0.194l-0.194,1.457l-0.291,1.457l-0.486,1.457l-0.485,1.457l-0.485,0.971l-0.485,0.971l-0.485,1.457
	c-0.325,0.971-0.648,2.267-0.972,3.884c-0.324,1.619-3.398,8.094-9.226,19.423c-5.827,11.33-13.11,22.822-21.851,34.476
	c-8.74,11.653-16.575,20.459-23.502,26.415c-6.992,6.021-11.622,10.229-13.888,12.625c-2.267,2.46-5.018,4.727-8.254,6.798
	l-4.856,3.205l-0.971,0.486l-0.972,0.485l-0.194,0.291l-0.291,0.195l-0.292,0.194l-0.193,0.291l-0.972,0.485l-0.971,0.486
	l-0.194,0.291l-0.291,0.194l-0.292,0.194l-0.193,0.292l-0.194,0.291l-0.292,0.194l-0.292,0.194l-0.193,0.292h4.855l27.192-5.827
	c18.127-3.884,35.446-8.578,51.956-14.082l26.221-8.74l2.914-0.971l1.456-0.485l0.972-0.486l0.971-0.485l0.972-0.486l0.971-0.485
	l1.942-0.291l1.942-0.195v1.942l-0.485,0.194l-0.486,0.292l-0.194,0.291l-0.291,0.194l-0.292,0.194l-0.193,0.292l-0.194,0.291
	l-0.291,0.194l-0.292,0.194l-0.193,0.291l-0.195,0.292l-0.291,0.194l-0.485,0.971l-0.485,0.971l-0.292,0.194
	c-0.129,0.194-4.24,5.698-12.333,16.509c-8.094,10.877-12.464,16.38-13.11,16.51c-0.647,0.194-1.555,1.166-2.72,2.913
	c-1.101,1.813-7.963,9.032-20.588,21.656c-12.625,12.625-24.99,23.858-37.098,33.699c-12.172,9.906-18.323,22.077-18.452,36.515
	c-0.194,14.374-0.938,30.624-2.233,48.751c-1.295,18.128-3.723,37.713-7.283,58.754c-3.562,21.042-9.064,44.835-16.51,71.379
	c-7.445,26.545-16.509,52.441-27.191,77.691s-21.852,47.91-33.505,67.979c-11.653,20.071-22.336,37.066-32.048,50.985
	c-9.711,13.92-19.585,27.031-29.62,39.331c-10.035,12.302-22.725,26.156-38.068,41.566c-15.409,15.344-23.825,23.761-25.25,25.249
	c-1.489,1.425-7.835,6.732-19.035,15.927c-11.136,9.258-23.112,18.517-35.932,27.775c-12.754,9.193-24.473,16.864-35.155,23.015
	c-10.683,6.151-23.567,13.176-38.652,21.074c-15.021,7.964-31.27,15.344-48.75,22.142s-35.933,13.11-55.355,18.938
	s-38.199,10.359-56.326,13.596c-18.128,3.238-38.685,5.989-61.667,8.255l-34.476,3.399V888h-63.125v-0.485l-8.255-0.485
	c-5.503-0.324-10.036-0.647-13.596-0.972c-3.562-0.323-16.995-2.104-40.303-5.341c-23.307-3.237-41.598-6.474-54.87-9.712
	c-13.272-3.236-33.019-9.387-59.24-18.451c-26.221-9.064-48.655-18.226-67.3-27.483c-18.582-9.193-30.235-15.021-34.961-17.48
	c-4.663-2.396-9.906-5.374-15.733-8.935l-8.74-5.342l-0.194-0.291l-0.292-0.194l-0.291-0.193l-0.194-0.292l-0.971-0.486
	l-0.971-0.485l-0.194-0.291l-0.291-0.194l-0.292-0.193l-0.194-0.292l-0.194-0.291l-0.291-0.195h-0.486v-1.941l0.971,0.194
	l0.971,0.291l4.37,0.485c2.914,0.324,10.844,0.81,23.793,1.457c12.948,0.647,26.707,0.647,41.273,0
	c14.567-0.647,29.458-2.104,44.673-4.37c15.214-2.266,33.18-6.15,53.898-11.654c20.717-5.502,39.751-12.041,57.103-19.616
	c17.286-7.64,29.587-13.337,36.903-17.093c7.251-3.689,18.322-10.553,33.213-20.588l22.336-15.053l0.193-0.291l0.292-0.195
	l0.292-0.193l0.194-0.292l0.193-0.291l0.292-0.194l0.291-0.193l0.195-0.292l0.971-0.291l0.971-0.194l0.194-0.972l0.292-0.971
	l0.291-0.193l0.194-0.293l-7.769-0.485c-5.18-0.323-10.197-0.646-15.053-0.971c-4.855-0.323-12.463-1.78-22.822-4.37
	c-10.359-2.589-21.527-6.474-33.504-11.654c-11.978-5.179-23.632-11.329-34.961-18.451c-11.33-7.122-19.521-13.045-24.569-17.771
	c-4.986-4.662-11.46-11.266-19.423-19.812c-7.899-8.611-14.762-17.448-20.589-26.513c-5.827-9.063-11.395-19.52-16.704-31.368
	l-8.061-17.675l-0.485-1.456l-0.485-1.457l-0.292-0.972l-0.194-0.971l1.457,0.194l1.457,0.291l10.683,1.457
	c7.121,0.971,18.29,1.296,33.504,0.971c15.214-0.323,25.735-0.971,31.562-1.942c5.827-0.971,9.387-1.617,10.683-1.941l1.942-0.486
	l2.428-0.485l2.428-0.485l0.194-0.291l0.292-0.194l0.291-0.193l0.194-0.293l-1.942-0.485l-1.942-0.485l-1.942-0.485l-1.942-0.485
	l-1.942-0.486c-1.295-0.323-3.561-0.971-6.798-1.942c-3.238-0.971-11.978-4.531-26.221-10.683
	c-14.244-6.149-25.574-12.139-33.99-17.966c-8.417-5.827-16.445-12.204-24.084-19.131c-7.576-6.992-15.895-15.991-24.959-26.998
	c-9.064-11.006-17.157-23.793-24.278-38.36c-7.123-14.567-12.464-28.487-16.024-41.759c-3.561-13.271-5.892-26.707-6.992-40.302
	l-1.748-20.394l0.971,0.194l0.971,0.291l0.971,0.486l0.971,0.485l0.971,0.486l0.971,0.485l15.053,6.798
	c10.035,4.533,22.498,8.417,37.389,11.654c14.891,3.238,23.793,5.018,26.707,5.341l4.37,0.486h8.74l-0.194-0.292l-0.291-0.194
	l-0.292-0.194l-0.194-0.291l-0.194-0.292l-0.291-0.194l-0.292-0.194l-0.194-0.291l-0.971-0.486l-0.971-0.485l-0.194-0.291
	l-0.291-0.195l-0.291-0.194l-0.194-0.291l-0.971-0.485l-0.971-0.486l-0.194-0.291c-0.195-0.129-2.978-2.201-8.352-6.216
	c-5.309-4.078-10.877-9.355-16.704-15.83c-5.827-6.474-11.653-13.271-17.48-20.394c-5.827-7.121-11.007-14.728-15.538-22.822
	c-4.532-8.092-9.324-18.386-14.373-30.882c-4.985-12.431-8.773-24.959-11.362-37.583c-2.59-12.625-4.047-25.088-4.37-37.389
	c-0.324-12.301,0-22.822,0.971-31.562s2.913-18.613,5.827-29.62c2.914-11.006,7.122-22.66,12.625-34.961l8.254-18.452l0.486-1.457
	l0.485-1.457l0.292-0.194l0.194-0.292l0.194-0.291l0.291-0.194l0.292,0.194l0.194,0.291l0.194,0.292l0.291,0.194l0.291,0.194
	l0.194,0.291l0.195,0.292l0.291,0.194l0.486,0.971l0.485,0.971l0.291,0.194l0.194,0.291l13.11,14.567
	c8.741,9.711,19.099,20.556,31.077,32.533c11.977,11.978,18.613,18.193,19.909,18.646c1.294,0.518,2.914,2.007,4.855,4.467
	c1.942,2.396,8.416,8.126,19.423,17.189c11.006,9.065,25.411,19.585,43.216,31.562c17.804,11.979,37.55,23.793,59.24,35.447
	c21.689,11.654,44.996,22.175,69.922,31.562c24.926,9.388,42.406,15.538,52.442,18.452c10.035,2.913,27.192,6.637,51.471,11.168
	c24.278,4.532,42.568,7.446,54.87,8.74c12.3,1.296,20.717,2.04,25.25,2.233l6.798,0.194l-0.194-1.457l-0.291-1.457l-1.942-12.139
	c-1.295-8.093-1.942-19.423-1.942-33.99s1.132-28.001,3.399-40.302c2.266-12.301,5.665-24.764,10.197-37.389
	c4.531-12.625,8.966-22.756,13.304-30.396c4.402-7.575,10.165-16.218,17.287-25.93s16.348-19.747,27.678-30.105
	c11.329-10.358,24.278-19.584,38.846-27.678c14.567-8.092,28.001-14.243,40.303-18.452c12.3-4.208,22.659-6.959,31.076-8.255
	C731.409,14.133,735.618,13.388,735.618,13.194z"/>
</svg>
