<svg xmlns="http://www.w3.org/2000/svg" width="1109" height="901" viewBox="0 0 1109 901"><path fill="#fff" stroke="#45AAFF" stroke-width="20" d="M735.618 13.194V13h50.5l18.45 3.69c12.302 2.396 23.47 5.536 33.506 9.42 10.034 3.885 19.746 8.417 29.134 13.596 9.388 5.18 17.9 10.456 25.54 15.83 7.576 5.31 14.374 10.942 20.395 16.898 5.956 6.02 15.248 7.575 27.872 4.662 12.625-2.914 26.222-6.96 40.788-12.14 14.567-5.18 28.973-11.006 43.216-17.48 14.242-6.474 22.918-10.585 26.025-12.334 3.043-1.812 4.662-2.783 4.856-2.913l.195-.292.97-.486.973-.485.97-.486.973-.484.194-.29.292-.196.29-.194.195-.29.972-.293.972-.194-.194 1.456-.29 1.457-.487 1.457-.485 1.457-.485.97-.485.972-.485 1.456c-.325.97-.648 2.267-.972 3.884-.323 1.62-3.397 8.094-9.225 19.423-5.827 11.33-13.11 22.822-21.85 34.476-8.74 11.652-16.576 20.458-23.503 26.414-6.992 6.02-11.622 10.23-13.888 12.625-2.267 2.46-5.018 4.726-8.254 6.797l-4.856 3.205-.97.486-.973.485-.193.29-.29.196-.293.193-.193.29-.97.486-.972.485-.194.29-.29.195-.293.194-.192.292-.194.29-.292.195-.292.195-.193.292h4.855l27.192-5.827c18.127-3.884 35.446-8.578 51.956-14.082l26.22-8.74 2.915-.97 1.456-.486.973-.486.97-.485.973-.485.97-.485 1.943-.29 1.94-.196v1.942l-.484.194-.486.292-.194.29-.29.195-.293.194-.193.293-.194.29-.29.195-.293.194-.193.29-.195.293-.29.194-.486.97-.486.97-.292.195c-.13.194-4.24 5.698-12.333 16.51-8.095 10.876-12.465 16.38-13.11 16.51-.648.193-1.556 1.165-2.72 2.912-1.102 1.813-7.964 9.032-20.59 21.656-12.624 12.625-24.99 23.858-37.097 33.7-12.172 9.905-18.323 22.076-18.452 36.514-.193 14.374-.937 30.624-2.232 48.75-1.295 18.13-3.723 37.714-7.283 58.755-3.562 21.042-9.064 44.835-16.51 71.38-7.445 26.544-16.51 52.44-27.19 77.69s-21.853 47.91-33.506 67.98c-11.654 20.07-22.337 37.065-32.05 50.984-9.71 13.92-19.584 27.03-29.62 39.33-10.034 12.303-22.724 26.157-38.067 41.567-15.41 15.344-23.825 23.76-25.25 25.25-1.49 1.424-7.835 6.73-19.035 15.926-11.136 9.257-23.112 18.516-35.932 27.774-12.754 9.193-24.473 16.864-35.155 23.015-10.682 6.15-23.566 13.175-38.65 21.073-15.022 7.964-31.27 15.344-48.75 22.142s-35.934 13.11-55.356 18.938-38.2 10.36-56.326 13.596c-18.128 3.237-38.685 5.988-61.667 8.254l-34.475 3.4V888H323.86v-.485l-8.255-.485c-5.503-.324-10.036-.647-13.596-.972-3.563-.323-16.996-2.104-40.304-5.34-23.307-3.238-41.598-6.475-54.87-9.713-13.272-3.236-33.02-9.387-59.24-18.45-26.22-9.065-48.655-18.227-67.3-27.484-18.582-9.192-30.235-15.02-34.96-17.48-4.664-2.395-9.907-5.373-15.734-8.934l-8.74-5.342-.194-.29-.292-.195-.29-.194-.195-.292-.97-.486-.97-.485-.195-.29-.29-.195-.293-.193-.194-.292-.194-.29-.29-.196h-.487v-1.94l.97.193.972.29 4.37.486c2.913.324 10.843.81 23.792 1.457 12.948.647 26.707.647 41.273 0 14.567-.647 29.458-2.104 44.673-4.37 15.214-2.266 33.18-6.15 53.898-11.654 20.717-5.503 39.75-12.042 57.103-19.617 17.285-7.64 29.586-13.337 36.902-17.093 7.25-3.69 18.322-10.553 33.213-20.588l22.336-15.053.194-.292.292-.195.292-.193.194-.292.193-.29.292-.195.29-.193.196-.292.97-.29.972-.195.194-.972.29-.97.292-.193.194-.293-7.77-.485c-5.18-.324-10.196-.647-15.052-.972-4.855-.323-12.463-1.78-22.822-4.37-10.36-2.59-21.527-6.474-33.504-11.654-11.978-5.18-23.632-11.33-34.96-18.45-11.33-7.123-19.522-13.046-24.57-17.772-4.986-4.662-11.46-11.266-19.423-19.812-7.9-8.61-14.762-17.448-20.59-26.513-5.826-9.063-11.394-19.52-16.703-31.368l-8.06-17.676-.486-1.456-.485-1.457-.29-.97-.195-.972 1.457.194 1.457.29 10.682 1.458c7.12.97 18.29 1.296 33.504.97 15.214-.322 25.735-.97 31.562-1.94 5.827-.972 9.387-1.618 10.683-1.942l1.943-.486 2.428-.485 2.43-.485.193-.29.292-.195.29-.193.195-.293-1.942-.484-1.942-.485-1.942-.484-1.942-.485-1.942-.485c-1.295-.323-3.56-.97-6.798-1.942-3.238-.97-11.978-4.53-26.22-10.683-14.245-6.15-25.575-12.14-33.99-17.966-8.418-5.827-16.446-12.204-24.085-19.13-7.576-6.993-15.895-15.992-24.96-27-9.063-11.005-17.156-23.792-24.277-38.36-7.123-14.566-12.464-28.486-16.024-41.758-3.56-13.27-5.892-26.707-6.992-40.302l-1.748-20.394.97.194.972.29.97.487.972.486.97.486.972.485 15.053 6.798c10.035 4.533 22.498 8.417 37.39 11.654 14.89 3.237 23.792 5.017 26.706 5.34l4.37.486h8.74l-.193-.292-.29-.194-.293-.194-.194-.29-.194-.293-.29-.194-.293-.195-.194-.29-.972-.487-.97-.485-.195-.29-.29-.196-.292-.194-.193-.29-.97-.486-.972-.486-.194-.29c-.194-.13-2.977-2.2-8.35-6.216-5.31-4.078-10.878-9.355-16.705-15.83-5.827-6.474-11.653-13.27-17.48-20.394-5.827-7.12-11.007-14.728-15.538-22.822-4.532-8.092-9.324-18.386-14.373-30.882-4.985-12.43-8.773-24.96-11.362-37.583-2.59-12.625-4.047-25.088-4.37-37.39-.324-12.3 0-22.82.97-31.56s2.914-18.614 5.828-29.62c2.914-11.007 7.122-22.66 12.625-34.962l8.254-18.45.485-1.458.485-1.457.292-.194.194-.29.194-.292.29-.194.293.194.194.29.194.293.292.195.29.194.195.29.195.292.29.194.487.97.484.972.29.194.195.29 13.11 14.568c8.74 9.71 19.098 20.556 31.076 32.533 11.977 11.978 18.613 18.193 19.91 18.646 1.293.517 2.913 2.006 4.854 4.466 1.942 2.396 8.416 8.126 19.423 17.19 11.006 9.064 25.41 19.584 43.216 31.56 17.803 11.98 37.55 23.794 59.24 35.448 21.688 11.654 44.995 22.175 69.92 31.562 24.927 9.388 42.407 15.538 52.443 18.452 10.035 2.913 27.192 6.637 51.47 11.168 24.28 4.532 42.57 7.446 54.87 8.74 12.3 1.296 20.718 2.04 25.25 2.233l6.8.193-.195-1.457-.29-1.457-1.943-12.14c-1.295-8.093-1.942-19.423-1.942-33.99s1.132-28 3.4-40.302c2.265-12.3 5.664-24.764 10.196-37.39 4.53-12.624 8.965-22.755 13.303-30.395 4.402-7.575 10.165-16.218 17.287-25.93s16.348-19.747 27.678-30.105c11.33-10.358 24.278-19.584 38.846-27.678 14.567-8.092 28-14.243 40.303-18.452 12.3-4.208 22.66-6.96 31.076-8.255 8.406-1.3 12.615-2.045 12.615-2.24z"/></svg>